<svg xmlns="http://www.w3.org/2000/svg" width="88" height="13.478" viewBox="0 0 88 13.478">
  <path id="패스_390" data-name="패스 390" d="M1014.065,668.373a1.563,1.563,0,0,1-.013-.661,1.037,1.037,0,0,1,1.151-.848,1.075,1.075,0,0,1,1.169,1.143v.779h3.138V667.9c0-2.737-2.467-3.173-4.246-3.173-2.234,0-4.06.742-4.394,2.8a4.345,4.345,0,0,0,.025,1.7c.545,2.572,5.016,3.316,5.666,4.943a1.626,1.626,0,0,1,.024.929,1.089,1.089,0,0,1-1.229.85,1.121,1.121,0,0,1-1.256-1.146l0-1.21h-3.376v.962c0,2.813,2.209,3.659,4.573,3.659,2.273,0,4.14-.775,4.444-2.88a6.25,6.25,0,0,0-.013-2.059C1019.194,670.628,1014.423,669.846,1014.065,668.373Zm40.914.031a1.687,1.687,0,0,1-.011-.65,1.031,1.031,0,0,1,1.14-.842,1.062,1.062,0,0,1,1.152,1.133v.769h3.1v-.877c0-2.711-2.43-3.136-4.189-3.136-2.216,0-4.026.73-4.356,2.77a4.2,4.2,0,0,0,.03,1.676c.539,2.543,4.967,3.281,5.609,4.889a1.7,1.7,0,0,1,.023.922c-.1.419-.378.84-1.212.84a1.114,1.114,0,0,1-1.254-1.128v-1.208h-3.339v.96c0,2.781,2.178,3.62,4.524,3.62,2.247,0,4.1-.768,4.4-2.849a6.129,6.129,0,0,0-.022-2.039C1060.054,670.644,1055.335,669.86,1054.978,668.4Zm28.566,6.855-2.963-10.129h-4.669v12.449H1079l-.179-10.453L1082,677.579h4.478V665.13h-3.109Zm-59.355-10.129-2.33,12.58h3.4l1.756-11.646,1.714,11.646h3.375l-2.321-12.58Zm19,0-1.587,9.834-1.586-9.834h-5.132l-.272,12.58h3.144l.085-11.646,2.163,11.646h3.19l2.166-11.646.085,11.646h3.152l-.281-12.58Zm29.234,0h-3.182v9.307a2.205,2.205,0,0,1-.028.478,1.25,1.25,0,0,1-2.408,0,2.046,2.046,0,0,1-.032-.478V665.13h-3.181v9.018c0,.232.014.707.028.832.22,2.35,2.072,3.113,4.384,3.113s4.168-.763,4.392-3.113a6.6,6.6,0,0,0,.027-.832Zm21.846,5.519v1.835h1.289v1.82a2.29,2.29,0,0,1-.033.479,1.359,1.359,0,0,1-2.57,0,3.126,3.126,0,0,1-.033-.479v-5.75a2.575,2.575,0,0,1,.057-.594,1.319,1.319,0,0,1,2.508,0,3.283,3.283,0,0,1,.038.485v.7h3.168v-.413a7.49,7.49,0,0,0-.024-.833c-.238-2.36-2.182-3.107-4.412-3.107s-4.139.754-4.416,3.107c-.025.215-.063.6-.063.833v5.289a7.17,7.17,0,0,0,.05.83c.207,2.3,2.2,3.109,4.421,3.109s4.214-.813,4.424-3.109c.037-.421.041-.6.046-.83v-3.371Z" transform="translate(-1010.721 -664.729)"/>
</svg>
