<svg xmlns="http://www.w3.org/2000/svg" width="30" height="30" viewBox="0 0 30 30">
  <g id="그룹_14381" data-name="그룹 14381" transform="translate(-656 -278)">
    <rect id="사각형_11826" data-name="사각형 11826" width="5" height="5" transform="translate(686 278) rotate(90)"/>
    <rect id="사각형_11868" data-name="사각형 11868" width="5" height="5" transform="translate(686 283) rotate(90)"/>
    <rect id="사각형_11869" data-name="사각형 11869" width="5" height="5" transform="translate(686 288) rotate(90)"/>
    <rect id="사각형_11867" data-name="사각형 11867" width="5" height="8" transform="translate(686 293) rotate(90)"/>
    <rect id="사각형_11833" data-name="사각형 11833" width="5" height="5" transform="translate(681 278) rotate(90)"/>
    <rect id="사각형_11842" data-name="사각형 11842" width="5" height="5" transform="translate(676 278) rotate(90)"/>
    <rect id="사각형_11874" data-name="사각형 11874" width="5" height="5" transform="translate(661 288) rotate(90)"/>
    <rect id="사각형_11870" data-name="사각형 11870" width="8" height="5" transform="translate(671 278) rotate(90)"/>
    <rect id="사각형_11873" data-name="사각형 11873" width="5" height="5" transform="translate(666 288) rotate(90)"/>
    <rect id="사각형_11924" data-name="사각형 11924" width="5" height="5" transform="translate(671 288) rotate(90)"/>
    <rect id="사각형_11925" data-name="사각형 11925" width="5" height="5" transform="translate(676 288) rotate(90)"/>
    <rect id="사각형_11926" data-name="사각형 11926" width="5" height="5" transform="translate(676 293) rotate(90)"/>
    <rect id="사각형_11927" data-name="사각형 11927" width="5" height="5" transform="translate(676 298) rotate(90)"/>
    <rect id="사각형_11928" data-name="사각형 11928" width="5" height="5" transform="translate(676 303) rotate(90)"/>
    <rect id="사각형_11929" data-name="사각형 11929" width="5" height="5" transform="translate(671 303) rotate(90)"/>
    <rect id="사각형_11930" data-name="사각형 11930" width="5" height="5" transform="translate(666 303) rotate(90)"/>
    <rect id="사각형_11931" data-name="사각형 11931" width="5" height="5" transform="translate(661 303) rotate(90)"/>
    <rect id="사각형_11932" data-name="사각형 11932" width="5" height="5" transform="translate(661 298) rotate(90)"/>
    <rect id="사각형_11866" data-name="사각형 11866" width="5" height="5" transform="translate(661 293) rotate(90)"/>
  </g>
</svg>
