<svg xmlns="http://www.w3.org/2000/svg" width="30" height="30" viewBox="0 0 30 30">
  <g id="그룹_14424" data-name="그룹 14424" transform="translate(-244 -235)">
    <rect id="사각형_12118" data-name="사각형 12118" width="5" height="5" transform="translate(249 242) rotate(90)"/>
    <rect id="사각형_12119" data-name="사각형 12119" width="5" height="5" transform="translate(274 242) rotate(90)"/>
    <rect id="사각형_12112" data-name="사각형 12112" width="5" height="5" transform="translate(249 235) rotate(90)"/>
    <rect id="사각형_12120" data-name="사각형 12120" width="5" height="5" transform="translate(249 237) rotate(90)"/>
    <rect id="사각형_12121" data-name="사각형 12121" width="5" height="5" transform="translate(274 237) rotate(90)"/>
    <rect id="사각형_12122" data-name="사각형 12122" width="5" height="5" transform="translate(249 247) rotate(90)"/>
    <rect id="사각형_12123" data-name="사각형 12123" width="5" height="5" transform="translate(274 246) rotate(90)"/>
    <rect id="사각형_12127" data-name="사각형 12127" width="5" height="5" transform="translate(249 257) rotate(90)"/>
    <rect id="사각형_12133" data-name="사각형 12133" width="5" height="5" transform="translate(249 260) rotate(90)"/>
    <rect id="사각형_12129" data-name="사각형 12129" width="5" height="5" transform="translate(249 252) rotate(90)"/>
    <rect id="사각형_12113" data-name="사각형 12113" width="5" height="5" transform="translate(251 235) rotate(90)"/>
    <rect id="사각형_12131" data-name="사각형 12131" width="4" height="12" transform="translate(260 251) rotate(90)"/>
    <rect id="사각형_12515" data-name="사각형 12515" width="4" height="15.5" transform="translate(263.5 243.5) rotate(90)"/>
    <rect id="사각형_12135" data-name="사각형 12135" width="5" height="5" transform="translate(251 260) rotate(90)"/>
    <rect id="사각형_12114" data-name="사각형 12114" width="5" height="5" transform="translate(261 235) rotate(90)"/>
    <rect id="사각형_12115" data-name="사각형 12115" width="5" height="5" transform="translate(266 235) rotate(90)"/>
    <rect id="사각형_12158" data-name="사각형 12158" width="5" height="5" transform="translate(271 235) rotate(90)"/>
    <rect id="사각형_12116" data-name="사각형 12116" width="5" height="5" transform="translate(274 235) rotate(90)"/>
    <rect id="사각형_12136" data-name="사각형 12136" width="5" height="4" transform="translate(260 260) rotate(90)"/>
    <rect id="사각형_12117" data-name="사각형 12117" width="5" height="5" transform="translate(256 235) rotate(90)"/>
    <rect id="사각형_12138" data-name="사각형 12138" width="5" height="5" transform="translate(256 260) rotate(90)"/>
  </g>
</svg>
