<svg xmlns="http://www.w3.org/2000/svg" width="30" height="30" viewBox="0 0 30 30">
  <g id="그룹_14423" data-name="그룹 14423" transform="translate(-244 -592)">
    <rect id="사각형_11849" data-name="사각형 11849" width="5" height="5" transform="translate(261.5 597) rotate(90)"/>
    <rect id="사각형_12155" data-name="사각형 12155" width="6" height="5" transform="translate(261.5 592) rotate(90)"/>
    <rect id="사각형_11941" data-name="사각형 11941" width="5" height="5" transform="translate(261.5 612) rotate(90)"/>
    <rect id="사각형_11954" data-name="사각형 11954" width="5" height="5" transform="translate(254 609.5) rotate(180)"/>
    <rect id="사각형_12157" data-name="사각형 12157" width="5" height="5" transform="translate(258 609.5) rotate(180)"/>
    <rect id="사각형_11851" data-name="사각형 11851" width="5" height="5" transform="translate(261.5 602) rotate(90)"/>
    <rect id="사각형_11943" data-name="사각형 11943" width="5" height="5" transform="translate(261.5 617) rotate(90)"/>
    <rect id="사각형_11951" data-name="사각형 11951" width="5" height="5" transform="translate(269 609.5) rotate(180)"/>
    <rect id="사각형_12156" data-name="사각형 12156" width="5" height="5" transform="translate(274 609.5) rotate(180)"/>
    <rect id="사각형_11955" data-name="사각형 11955" width="5" height="5" transform="translate(249 609.5) rotate(180)"/>
    <rect id="사각형_11852" data-name="사각형 11852" width="5" height="5" transform="translate(261.5 607) rotate(90)"/>
    <rect id="사각형_11948" data-name="사각형 11948" width="5" height="5" transform="translate(264 609.5) rotate(180)"/>
  </g>
</svg>
